<svg id="calendar" xmlns="http://www.w3.org/2000/svg" width="24" height="24" viewBox="0 0 24 24">
  <path id="Path_2" data-name="Path 2" d="M1.5,6.75v15A1.5,1.5,0,0,0,3,23.25H21a1.5,1.5,0,0,0,1.5-1.5v-15ZM3,2.25a3,3,0,0,0-3,3v16.5a3,3,0,0,0,3,3H21a3,3,0,0,0,3-3V5.25a3,3,0,0,0-3-3Z" transform="translate(0 -0.75)" fill="#fff" fill-rule="evenodd"/>
  <path id="Path_3" data-name="Path 3" d="M7.5,0a.75.75,0,0,1,.75.75V1.5a.75.75,0,0,1-1.5,0V.75A.75.75,0,0,1,7.5,0ZM21,0a.75.75,0,0,1,.75.75V1.5a.75.75,0,0,1-1.5,0V.75A.75.75,0,0,1,21,0Z" transform="translate(-2.25)" fill="#fff" fill-rule="evenodd"/>
  <path id="Path_4" data-name="Path 4" d="M18.75,14.25a.75.75,0,0,1,.75-.75H21a.75.75,0,0,1,.75.75v1.5a.75.75,0,0,1-.75.75H19.5a.75.75,0,0,1-.75-.75Zm-4.5,0A.75.75,0,0,1,15,13.5h1.5a.75.75,0,0,1,.75.75v1.5a.75.75,0,0,1-.75.75H15a.75.75,0,0,1-.75-.75Zm-7.5,4.5A.75.75,0,0,1,7.5,18H9a.75.75,0,0,1,.75.75v1.5A.75.75,0,0,1,9,21H7.5a.75.75,0,0,1-.75-.75Zm4.5,0A.75.75,0,0,1,12,18h1.5a.75.75,0,0,1,.75.75v1.5a.75.75,0,0,1-.75.75H12a.75.75,0,0,1-.75-.75Z" transform="translate(-2.25 -4.5)" fill="#fff"/>
</svg>
