<svg xmlns="http://www.w3.org/2000/svg" width="118.473" height="28.735" viewBox="0 0 118.473 28.735">
  <g id="logo" transform="translate(-39 -16.194)">
    <text id="MOVIES" transform="translate(70.473 40.929)" fill="#fff" font-size="24" font-family="OldStamper, Old Stamper"><tspan x="0" y="0">MOVIES</tspan></text>
    <path id="Icon_material-live-tv" data-name="Icon material-live-tv" d="M26.207,8.733H16.831l4.064-4.715L20.03,3,15.089,8.733,10.147,3,9.27,4.018l4.077,4.715H3.971A2.69,2.69,0,0,0,1.5,11.6V28.8a2.7,2.7,0,0,0,2.471,2.866H26.207A2.7,2.7,0,0,0,28.678,28.8V11.6A2.69,2.69,0,0,0,26.207,8.733Zm0,20.065H3.971V11.6H26.207ZM11.383,14.466V25.932L20.03,20.2Z" transform="translate(37.5 13.194)" fill="#fff"/>
  </g>
</svg>
